<?xml version="1.0" standalone="no"?>
<!DOCTYPE svg PUBLIC "-//W3C//DTD SVG 20010904//EN"
 "http://www.w3.org/TR/2001/REC-SVG-20010904/DTD/svg10.dtd">
<svg version="1.0" xmlns="http://www.w3.org/2000/svg"
 width="200.000000pt" height="206.000000pt" viewBox="0 0 200.000000 206.000000"
 preserveAspectRatio="xMidYMid meet">

<g transform="translate(0.000000,206.000000) scale(0.100000,-0.100000)"
fill="#000000" stroke="none">
<path d="M980 1840 c-19 -10 -47 -31 -61 -47 -25 -27 -199 -318 -199 -333 0
-7 51 -33 55 -28 1 2 33 55 70 118 141 238 152 250 235 250 82 0 96 -14 238
-255 23 -38 39 -71 37 -73 -2 -2 -35 5 -72 16 -119 35 -130 36 -137 10 -9 -36
-9 -36 42 -47 26 -6 81 -20 122 -31 100 -26 128 -26 140 3 12 28 72 259 68
262 -2 2 -15 6 -30 10 -29 7 -31 3 -59 -122 -13 -59 -24 -62 -48 -17 -25 47
-101 175 -128 215 -35 54 -107 89 -179 89 -38 -1 -72 -8 -94 -20z"/>
<path d="M1080 1362 c-21 -6 -158 -141 -180 -176 -17 -26 -17 -32 -5 -57 17
-31 45 -44 76 -34 13 4 27 1 39 -10 19 -17 18 -19 -38 -71 -45 -41 -62 -52
-80 -47 -19 5 -39 -10 -113 -84 -63 -63 -89 -96 -89 -113 0 -30 76 -110 105
-110 12 0 55 34 109 89 74 75 88 93 84 114 -4 21 6 36 52 82 55 55 57 55 74
36 14 -15 15 -24 6 -40 -20 -39 33 -91 78 -77 30 10 192 181 192 203 0 32 -44
67 -78 60 -25 -5 -37 2 -101 67 -45 45 -69 76 -62 80 35 22 -28 102 -69 88z"/>
<path d="M359 995 c-64 -18 -124 -35 -135 -37 -12 -2 -18 -11 -16 -23 6 -43 8
-44 97 -19 48 14 91 24 95 22 5 -2 -8 -30 -27 -63 -86 -143 -133 -245 -133
-285 0 -80 56 -171 124 -201 36 -15 71 -18 237 -19 l194 -2 3 31 3 31 -159 0
c-239 0 -294 16 -328 97 -26 61 -18 89 68 240 45 79 85 143 88 143 4 0 17 -43
29 -95 22 -87 26 -95 48 -95 13 0 26 6 29 14 8 22 -67 276 -85 285 -10 6 -58
-3 -132 -24z"/>
<path d="M1666 967 c-18 -13 -15 -22 71 -178 50 -90 94 -177 97 -193 8 -32 -9
-92 -33 -120 -38 -45 -87 -56 -253 -56 -87 0 -158 2 -158 5 0 3 32 35 70 72
71 67 80 87 47 107 -16 9 -32 -3 -118 -92 -54 -57 -99 -112 -99 -121 0 -24
198 -214 216 -207 36 14 26 38 -41 106 l-67 68 173 4 c191 4 208 8 267 69 80
82 81 169 3 310 -143 259 -138 253 -175 226z"/>
<path d="M1274 825 c-3 -8 -3 -18 0 -24 3 -5 -7 -12 -24 -16 -55 -12 -64 -76
-13 -96 35 -13 217 -11 248 3 38 17 32 67 -12 89 -23 11 -29 19 -21 27 22 22
-5 32 -88 32 -65 0 -86 -3 -90 -15z"/>
</g>
</svg>
